{"title":"Lilyhammer S03E06 - The Minstrel Boy - Ehhhh.mkv","uid":11576218,"size":410006326,"categoryP":"video","categoryS":"hd___tv_shows","magnet":"?xt=urn:btih:c05f0f8abcedecbca2b82ec0535f8ac37fffd84b&amp;dn=Lilyhammer+S03E06+-+The+Minstrel+Boy+-+Ehhhh.mkv&amp;tr=udp%3A%2F%2Ftracker.openbittorrent.com%3A80&amp;tr=udp%3A%2F%2Fopen.demonii.com%3A1337&amp;tr=udp%3A%2F%2Ftracker.coppersurfer.tk%3A6969&amp;tr=udp%3A%2F%2Fexodus.desync.com%3A6969","seeders":8,"leechers":1,"uploader":"mynameisurlz","files":1,"time":1417079634,"description":"22 :03x06 - The Minstrel Boy\nDec/03/2014\nFrank appreciates having a powerful mafia Tommy in the gang. But Tommy is struggling to cope with high costs in Norway and goes behind Franks back to earn a living.\n\nEnglish subtitles are for non-English parts only.\n\nGeneral\nFormat : Matroska\nFormat version : Version 4 / Version 2\nFile size : 391 MiB\nDuration : 45mn 47s\nOverall bit rate : 1 194 Kbps\nEncoded date : UTC 2014-11-27 02:13:51\nWriting application : mkvmerge v7.3.0 ('Nouages') 32bit built on Oct 22 2014 18:44:01\nWriting library : libebml v1.3.0 + libmatroska v1.4.1\nDURATION : 00:45:47.392000000\nNUMBER_OF_FRAMES : 85856\nNUMBER_OF_BYTES : 65937408\n_STATISTICS_WRITING_APP : mkvmerge v7.3.0 ('Nouages') 32bit built on Oct 22 2014 18:44:01\n_STATISTICS_WRITING_DATE_UTC : 2014-11-27 02:13:51\n_STATISTICS_TAGS : BPS DURATION NUMBER_OF_FRAMES NUMBER_OF_BYTES\n\nVideo\nID : 1\nFormat : AVC\nFormat/Info : Advanced Video Codec\nFormat profile : &lt;a class=&quot;__cf_email__&quot; href=&quot;/cdn-cgi/l/email-protection&quot; data-cfemail=&quot;eca4858b84aca0d8c2dd&quot;&gt;[email&amp;#160;protected]&lt;/a&gt;&lt;script cf-hash='f9e31' type=&quot;text/javascript&quot;&gt;\n/* &lt;![CDATA[ */!function(){try{var t=&quot;currentScript&quot;in document?document.currentScript:function(){for(var t=document.getElementsByTagName(&quot;script&quot;),e=t.length;e--;)if(t[e].getAttribute(&quot;cf-hash&quot;))return t[e]}();if(t&amp;&amp;t.previousSibling){var e,r,n,i,c=t.previousSibling,a=c.getAttribute(&quot;data-cfemail&quot;);if(a){for(e=&quot;&quot;,r=parseInt(a.substr(0,2),16),n=2;a.length-n;n+=2)i=parseInt(a.substr(n,2),16)^r,e+=String.fromCharCode(i);e=document.createTextNode(e),c.parentNode.replaceChild(e,c)}}}catch(u){}}();/* ]]&gt; */&lt;/script&gt;\nFormat settings, CABAC : Yes\nFormat settings, ReFrames : 9 frames\nCodec ID : V_MPEG4/ISO/AVC\nDuration : 45mn 47s\nBit rate : 1 010 Kbps\nWidth : 1 280 pixels\nHeight : 720 pixels\nDisplay aspect ratio : 16:9\nFrame rate mode : Constant\nFrame rate : 25.000 fps\nStandard : NTSC\nColor space : YUV\nChroma subsampling : 4:2:0\nBit depth : 8 bits\nScan type : Progressive\nBits/(Pixel*Frame) : 0.044\nStream size : 320 MiB (82%)\nWriting library : x264 core 142 r2479kMod dd79a61\nDefault : Yes\nForced : No\nColor range : Limited\n\nAudio\nID : 2\nFormat : AC-3\nFormat/Info : Audio Coding 3\nMode extension : CM (complete main)\nFormat settings, Endianness : Big\nCodec ID : A_AC3\nDuration : 45mn 47s\nBit rate mode : Constant\nBit rate : 192 Kbps\nChannel(s) : 2 channels\nChannel positions : Front: L R\nSampling rate : 48.0 KHz\nBit depth : 16 bits\nCompression mode : Lossy\nStream size : 62.9 MiB (16%)\nDefault : Yes\nForced : No","torrent":{"xt":"urn:btih:c05f0f8abcedecbca2b82ec0535f8ac37fffd84b","amp;dn":"Lilyhammer+S03E06+-+The+Minstrel+Boy+-+Ehhhh.mkv","amp;tr":["udp%3A%2F%2Ftracker.openbittorrent.com%3A80","udp%3A%2F%2Fopen.demonii.com%3A1337","udp%3A%2F%2Ftracker.coppersurfer.tk%3A6969","udp%3A%2F%2Fexodus.desync.com%3A6969"],"infoHash":"c05f0f8abcedecbca2b82ec0535f8ac37fffd84b","infoHashBuffer":{"type":"Buffer","data":[192,95,15,138,188,237,236,188,162,184,46,192,83,95,138,195,127,255,216,75]},"announce":[],"urlList":[]}}